<svg width="20" height="14" viewBox="0 0 20 14" fill="none" xmlns="http://www.w3.org/2000/svg">
<path d="M19.9994 10.0761V12.1022C20.0005 12.2903 19.9431 12.4764 19.831 12.6488C19.7188 12.8211 19.5542 12.9758 19.3478 13.1029C19.1415 13.2301 18.8978 13.3269 18.6325 13.3871C18.3672 13.4474 18.0861 13.4698 17.8072 13.4529C14.7128 13.227 11.7404 12.5169 9.1289 11.3796C6.69921 10.3427 4.63926 8.95925 3.09534 7.32751C1.39586 5.56569 0.338241 3.55978 0.00816212 1.47231C-0.0169672 1.28555 0.0160811 1.09733 0.105202 0.919626C0.194324 0.741919 0.337566 0.578622 0.525808 0.440132C0.71405 0.301641 0.943169 0.190991 1.19858 0.115226C1.45398 0.0394612 1.73008 0.000242063 2.0093 6.54759e-05H5.02608C5.5141 -0.00316025 5.98722 0.1129 6.35725 0.326615C6.72727 0.540329 6.96896 0.837114 7.03727 1.16165C7.1646 1.81002 7.40074 2.44664 7.74118 3.05936C7.87648 3.30108 7.90576 3.56378 7.82556 3.81633C7.74536 4.06889 7.55903 4.30071 7.28867 4.48433L6.01156 5.34201C7.44308 7.03276 9.52758 8.43267 12.0451 9.39405L13.3222 8.53637C13.5956 8.3548 13.9408 8.22966 14.3169 8.1758C14.6929 8.12194 15.0841 8.1416 15.444 8.23247C16.3564 8.4611 17.3043 8.61969 18.2698 8.70521C18.7582 8.75149 19.2044 8.91673 19.5233 9.1695C19.8422 9.42227 20.0116 9.74494 19.9994 10.0761Z" fill="#772B54"/>
</svg>
